<svg id="Ebene_1" data-name="Ebene 1" xmlns="http://www.w3.org/2000/svg" viewBox="0 0 280.48279 94.30241">
  <g>
    <path d="M0,5.07154H6.03505V29.20989c0,2.04123-.17772,3.63838-.17772,3.63838h.17772C7.72084,28.58856,13.6668,21.7554,23.78384,21.7554c11.00377,0,14.909,6.30093,14.909,17.30518V67.45863h-6.035V40.65774c0-7.01042-1.06446-13.22273-9.673-13.22273A16.9446,16.9446,0,0,0,6.745,40.12551a21.0119,21.0119,0,0,0-.71,5.946V67.45863H0Z" fill="#ffffff"/>
    <path d="M48.27622,78.6406a9.60969,9.60969,0,0,0,5.32463,2.04076c3.90473,0,6.65591-3.19432,8.43079-7.27677l2.75118-6.30047L46.14636,22.82033h6.65591l13.1341,32.56913c.88721,2.21895,1.59716,4.70331,1.59716,4.70331h.17772a42.32775,42.32775,0,0,1,1.50853-4.70331L82.088,22.82033h6.56681L66.64632,76.77709c-2.3071,5.67961-6.92226,9.31753-12.86775,9.31753a13.21736,13.21736,0,0,1-7.80946-2.66256Z" fill="#ffffff"/>
    <path d="M112.34909,80.68136c8.69713,0,15.61892-4.08246,15.61892-14.02178V62.57807a30.80077,30.80077,0,0,1,.17773-3.19525H127.968c-2.66208,4.96966-7.18814,7.80946-14.1104,7.80946-11.98007,0-19.87863-9.49571-19.87863-22.89569,0-13.40045,7.36586-22.54119,19.34641-22.54119,11.80282,0,14.73125,7.45449,14.73125,7.45449h.17772a10.201,10.201,0,0,1-.08862-1.50853v-4.881h5.85686v43.5729c0,14.199-10.472,19.70139-21.38717,19.70139a32.70991,32.70991,0,0,1-14.64309-3.54976l2.30757-4.96966A27.40606,27.40606,0,0,0,112.34909,80.68136Zm15.70755-36.38477c0-13.04547-6.21184-17.03883-14.10993-17.03883-8.69714,0-13.75542,6.30046-13.75542,16.94973S105.95952,61.779,114.83391,61.779C121.8448,61.779,128.05664,57.43022,128.05664,44.29659Z" fill="#ffffff"/>
    <path d="M167.45753,21.7554c12.33552,0,18.63692,9.49572,18.63692,20.58859,0,1.06492-.17819,3.10615-.17819,3.10615H151.66135c.26635,11.44832,8.07581,17.65969,17.30518,17.65969a20.7538,20.7538,0,0,0,13.57817-5.41326l2.75071,4.61515A25.58423,25.58423,0,0,1,168.78927,68.524c-13.31182,0-23.34023-9.58482-23.34023-23.34024C145.449,30.54116,155.38836,21.7554,167.45753,21.7554ZM179.9703,40.48048c-.3545-9.318-6.03411-13.66633-12.69-13.66633-7.454,0-13.93268,4.70331-15.35258,13.66633Z" fill="#ffffff"/>
  </g>
  <path d="M271.96338,39.85916h2.4853V38.7056c0-8.608-4.70425-11.53694-11.09287-11.53694a21.7365,21.7365,0,0,0-12.60187,4.25971l-2.83981-4.61422s5.85687-5.05875,15.88528-5.05875c10.73743,0,16.68338,5.946,16.68338,17.12793v28.5753H274.715V62.57807a35.34706,35.34706,0,0,1,.17725-3.72795H274.715A16.11953,16.11953,0,0,1,259.80511,68.524c-7.454,0-15.17439-4.34881-15.17439-13.22367C244.63072,40.21413,264.243,39.85916,271.96338,39.85916Zm-11.182,23.517c8.51942,0,13.66727-8.87393,13.66727-16.59523V44.82882h-2.57346c-7.01135,0-21.03313.26635-21.03313,10.117C250.84209,59.11647,254.1255,63.37618,260.78141,63.37618Z" fill="#ffffff"/>
  <g>
    <path d="M218.70474,7.08a1.76475,1.76475,0,0,1-.76372-3.35644c-1.10514-2.07756-2.6265-3.75095-4.28059-3.7232-1.60582.02775-3.0331,1.65288-4.061,3.681a1.76745,1.76745,0,0,1-.71786,3.38418,1.7165,1.7165,0,0,1-.52482-.08928,11.38236,11.38236,0,0,0-.41985,2.93658,6.07178,6.07178,0,0,0,3.1719,4.92969c1.32274.74747,4.5035.683,5.50022-.041,1.61166-1.17071,3.143-2.95106,3.10677-5.08774a11.17609,11.17609,0,0,0-.46571-2.72786,1.74207,1.74207,0,0,1-.54532.09411" fill="#37b8c0"/>
    <path d="M216.509,89.83892c.20841,1.66949.55724,4.46349,1.37637,4.46349.662,0,1.07659-1.81215,1.47781-3.56522l.31095-1.32957a22.42118,22.42118,0,0,0,.77-5.26752c-.10282-3.42479-2.51183-6.44223-5.54971-8.00446-2.7092-1.39367-4.68056-3.23873-5.14324-4.81642a2.6717,2.6717,0,0,1,.32726-2.20487c.95139-1.64584,2.44532-1.678,7.92971-1.09636,1.61024.171,3.43577.36459,5.48786.48351,5.32727.3099,9.97138-2.16667,11.56774-6.15713,1.32465-3.31121.2934-6.83249-2.75782-9.41973-4.553-3.86069-8.76218-2.38369-13.63632-.67926a49.67082,49.67082,0,0,1-9.60506,2.58161c-4.12414.612-7.68144-.60808-9.76739-3.34767a6.18678,6.18678,0,0,1-1.14149-6.02953c1.27517-2.88629,3.02431-6.83682,19.191-1.01736,9.41842,3.3928,17.39327,2.84853,21.32731-1.454a8.35038,8.35038,0,0,0,1.20834-9.43014c-2.97657-6.40714-9.678-5.17406-14.56688-4.273-2.27952.41927-4.63717.85243-5.84984.4171-4.09984-1.47613-3.48937-6.59381-3.38781-7.07732-2.62524,0-3.39361.064-4.19728-.03945-.65973,2.9132-.23785,9.02433,6.07987,11.29821,2.342.84505,5.16842.32378,8.15888-.22743,5.10852-.94011,8.30992-1.28864,9.7318,1.77344a3.9508,3.9508,0,0,1-.4566,4.559c-1.97657,2.16059-7.49395,3.52909-16.54258.27213-14.43927-5.19836-21.382-4.24393-24.76222,3.40236a10.51491,10.51491,0,0,0,1.67188,10.51956c3.0981,4.066,8.18318,5.908,13.95577,5.04992a54.12592,54.12592,0,0,0,10.421-2.78256c4.967-1.73915,6.80818-2.23177,9.29256-.12587,1.56945,1.32987,2.10417,2.885,1.50608,4.37892-.737,1.84245-3.22483,3.59767-7.184,3.37154-1.94618-.11285-3.71442-.30078-5.27518-.46615-5.44446-.579-9.74569-1.03386-12.24656,3.29037a7.11543,7.11543,0,0,0-.7448,5.68274c1.12067,3.816,5.10158,6.34681,7.375,7.51608a5.80361,5.80361,0,0,1,3.06316,4.0522C216.333,86.27413,216.37084,88.7289,216.509,89.83892Z" fill="#37b8c0"/>
  </g>
</svg>
